<?xml version="1.0" standalone="no"?>
<!DOCTYPE svg PUBLIC "-//W3C//DTD SVG 20010904//EN"
 "http://www.w3.org/TR/2001/REC-SVG-20010904/DTD/svg10.dtd">
<svg version="1.0" xmlns="http://www.w3.org/2000/svg"
 width="612.000000pt" height="612.000000pt" viewBox="0 0 612.000000 612.000000"
 preserveAspectRatio="xMidYMid meet">
<metadata>
Created by potrace 1.14, written by Peter Selinger 2001-2017
</metadata>
<g transform="translate(0.000000,612.000000) scale(0.100000,-0.100000)"
fill="#000000" stroke="none">
<path d="M5231 4870 c-30 -11 -72 -31 -93 -45 -50 -33 -118 -95 -118 -106 0
-18 120 -87 184 -105 75 -21 73 -15 25 -118 -34 -72 -136 -179 -254 -267 -129
-97 -298 -226 -327 -251 -77 -67 -69 -67 -120 12 -19 30 -44 65 -54 76 -11 12
-30 40 -44 63 -27 44 -37 48 -66 26 -26 -20 -27 -19 -47 14 -17 29 -17 30 15
76 27 38 33 57 36 114 5 82 -16 130 -79 184 -140 121 -359 17 -359 -169 0
-153 139 -257 286 -215 28 8 34 6 54 -21 21 -28 21 -30 3 -43 -10 -8 -21 -15
-25 -15 -16 0 -6 -26 33 -87 34 -52 39 -66 29 -78 -11 -13 -10 -14 1 -10 10 3
28 -14 52 -50 20 -30 37 -60 37 -65 0 -6 -51 -44 -112 -84 -100 -64 -146 -91
-263 -155 -16 -9 -33 -20 -37 -26 -4 -5 -8 -6 -8 -1 0 5 -6 3 -14 -3 -15 -13
-29 23 -58 148 -6 29 -18 56 -26 59 -25 9 -476 -58 -488 -73 -20 -26 26 -278
66 -357 26 -53 28 -63 15 -71 -24 -13 -156 -121 -231 -188 -108 -97 -123 -109
-229 -196 -135 -110 -257 -212 -276 -232 -9 -9 -53 -50 -99 -91 -46 -41 -103
-93 -127 -116 -23 -22 -75 -69 -115 -105 -40 -35 -74 -67 -76 -71 -2 -5 -8 -8
-13 -8 -5 0 -22 -11 -37 -24 -94 -84 -323 -191 -534 -251 l-57 -16 -28 25
c-68 63 -186 38 -227 -48 -14 -30 -23 -36 -62 -42 -26 -4 -70 -1 -105 6 -68
15 -92 38 -110 104 -6 22 -43 102 -82 176 -146 274 -172 361 -165 549 4 102
10 142 33 210 15 47 34 95 42 108 21 32 14 36 -34 19 -93 -33 -183 -93 -216
-146 -29 -45 -39 -148 -27 -269 15 -147 29 -197 100 -345 91 -194 103 -235 96
-332 -5 -73 -3 -85 19 -130 24 -48 116 -145 180 -190 113 -79 218 -104 436
-104 92 0 169 4 171 8 2 4 61 19 132 31 316 57 474 151 651 386 166 221 239
308 400 474 163 167 377 356 545 480 90 67 207 131 239 131 10 0 95 44 188 99
92 54 183 106 201 115 17 9 32 22 32 29 0 6 15 22 33 33 49 32 273 212 337
271 l54 50 51 -76 c28 -42 65 -100 83 -129 29 -47 36 -53 58 -48 13 4 33 15
44 26 11 11 26 20 33 20 8 -1 7 -5 -4 -13 -9 -7 -14 -18 -12 -24 3 -7 0 -13
-7 -13 -6 0 -9 -4 -5 -9 3 -5 -4 -49 -15 -98 -11 -48 -25 -113 -31 -143 -6
-30 -17 -72 -25 -93 -8 -20 -14 -54 -14 -75 0 -21 -4 -42 -9 -48 -5 -5 -12
-34 -16 -64 -4 -30 -11 -63 -16 -72 -12 -22 -12 -45 0 -32 11 12 31 96 25 106
-3 4 0 8 5 8 6 0 11 10 11 23 0 12 5 29 10 37 9 13 11 13 21 0 9 -13 10 -12 5
2 -3 10 -2 19 2 22 5 3 19 50 32 105 15 64 28 101 37 101 7 0 15 10 18 23 3
12 19 79 35 149 17 70 30 139 30 153 0 15 4 24 10 20 5 -3 8 0 5 7 -3 7 4 46
14 86 l18 74 -31 19 c-17 10 -34 19 -38 19 -3 0 -10 -23 -15 -50 -4 -28 -12
-52 -17 -53 -9 -2 -104 125 -128 170 -10 21 -4 31 69 110 48 53 103 102 139
123 68 41 298 261 387 370 96 120 207 304 207 345 0 26 -41 16 -81 -20 -24
-21 -49 -35 -65 -35 l-26 0 37 68 c21 37 51 84 67 104 l30 38 -29 11 c-52 21
-124 21 -182 -1z m-1008 -334 c159 -68 131 -310 -39 -342 -169 -32 -283 174
-166 300 51 54 136 72 205 42z m-418 -895 c130 -59 186 -243 108 -355 -120
-173 -392 -59 -393 163 0 158 145 256 285 192z m927 -68 c24 -21 23 -45 -2
-68 -46 -41 -108 26 -65 69 21 20 44 20 67 -1z"/>
<path d="M3659 3564 c-92 -59 -77 -214 26 -264 56 -27 102 -21 147 19 61 54
47 182 -25 233 -39 28 -113 34 -148 12z m75 -13 c4 -5 2 -21 -4 -36 -7 -19
-16 -26 -32 -23 -12 2 -23 9 -26 17 -3 9 0 11 7 7 7 -4 19 -5 28 -2 11 5 13
10 4 20 -11 12 -6 26 10 26 4 0 10 -4 13 -9z m52 -65 c-9 -14 -31 -30 -49 -35
-30 -9 -28 -9 23 -10 62 -1 58 -18 -5 -23 l-40 -4 48 -13 c48 -14 74 -41 61
-63 -5 -7 -10 -4 -15 9 -5 13 -26 27 -59 38 -36 12 -50 21 -46 31 4 10 -2 14
-19 14 -25 0 -36 19 -12 21 10 0 10 2 0 6 -29 11 -10 22 30 17 36 -5 45 -2 66
20 30 31 40 26 17 -8z"/>
<path d="M4897 4693 c-4 -3 -7 -26 -7 -51 0 -39 -23 -108 -40 -122 -17 -13
-61 -101 -58 -115 3 -14 8 -13 37 7 49 33 71 68 76 119 2 24 7 72 11 107 6 57
0 75 -19 55z"/>
<path d="M3062 3613 c-18 -7 -52 -77 -52 -106 0 -14 -6 -29 -13 -35 -7 -6 -14
-23 -15 -37 -6 -72 -64 -137 -207 -230 -144 -95 -268 -151 -443 -200 -121 -35
-144 -26 -27 9 140 43 258 109 345 192 73 71 129 144 99 131 -338 -144 -808
-227 -1286 -227 l-132 0 -27 -82 c-30 -97 -37 -184 -14 -198 17 -11 64 -25
165 -48 53 -12 122 -16 285 -16 184 0 230 3 320 22 419 89 788 307 1011 594
38 50 69 94 69 99 0 15 -53 139 -59 138 -3 0 -12 -3 -19 -6z m-682 -484 c-183
-82 -469 -131 -847 -145 -169 -7 -185 -9 -156 -21 67 -27 221 -45 443 -51 152
-4 209 -8 175 -13 -77 -11 -355 -10 -442 1 -79 11 -235 40 -241 45 -2 1 6 18
17 36 l21 34 202 1 c293 1 521 33 748 103 111 34 143 38 80 10z"/>
<path d="M2901 3416 c-35 -20 -65 -48 -87 -81 -18 -27 -31 -51 -29 -53 6 -6
64 28 99 59 34 29 82 97 75 103 -2 1 -28 -11 -58 -28z"/>
<path d="M4741 2943 c-1 -6 -4 -20 -7 -30 -5 -17 -5 -17 6 0 6 10 9 23 6 30
-3 9 -5 9 -5 0z"/>
<path d="M4716 2865 c-3 -9 -10 -14 -14 -11 -5 3 -21 -42 -37 -100 -24 -87
-32 -105 -46 -101 -13 4 -19 -6 -28 -47 -18 -80 -31 -147 -37 -191 -3 -22 -14
-63 -24 -92 -10 -30 -15 -51 -11 -49 4 3 13 1 19 -3 10 -6 6 -34 -18 -120 -16
-61 -30 -118 -30 -126 0 -8 -8 -22 -19 -32 -18 -18 -53 -136 -53 -180 0 -13
-3 -23 -7 -23 -3 0 -7 -21 -8 -47 -2 -55 0 -53 63 71 31 62 55 131 80 230 44
181 76 339 79 396 2 48 45 222 70 280 16 40 39 149 32 156 -2 3 -7 -2 -11 -11z"/>
<path d="M4608 2697 c-3 -19 -2 -25 4 -19 6 6 8 18 6 28 -3 14 -5 12 -10 -9z"/>
<path d="M3537 1533 c145 -2 381 -2 525 0 145 1 27 2 -262 2 -289 0 -407 -1
-263 -2z"/>
</g>
</svg>
